<?xml version="1.0" standalone="no"?>
<!DOCTYPE svg PUBLIC "-//W3C//DTD SVG 20010904//EN"
 "http://www.w3.org/TR/2001/REC-SVG-20010904/DTD/svg10.dtd">
<svg version="1.0" xmlns="http://www.w3.org/2000/svg"
 width="512.000000pt" height="512.000000pt" viewBox="0 0 512.000000 512.000000"
 preserveAspectRatio="xMidYMid meet">
<metadata>
Created by potrace 1.14, written by Peter Selinger 2001-2017
</metadata>
<g transform="translate(0.000000,512.000000) scale(0.100000,-0.100000)"
fill="#000000" stroke="none">
<path d="M202 4234 c-7 -3 -19 -19 -27 -35 -23 -43 -21 -694 2 -771 40 -137
129 -235 256 -283 l47 -18 0 -373 0 -374 -25 -6 c-38 -10 -111 -96 -124 -148
-7 -31 -11 -239 -11 -669 0 -600 1 -626 19 -648 19 -24 23 -24 215 -27 l196
-3 25 27 25 27 -2 646 c-3 606 -4 648 -22 683 -22 45 -69 93 -108 110 l-28 13
0 372 c0 235 4 373 10 373 25 0 126 58 171 98 58 52 94 110 120 193 17 55 19
96 19 402 0 188 -3 352 -6 365 -7 25 -51 52 -84 52 -12 0 -32 -12 -45 -26
l-25 -27 0 -343 c0 -322 -1 -347 -21 -398 -14 -39 -35 -68 -71 -101 -27 -25
-54 -45 -59 -45 -5 0 -9 190 -9 443 0 486 1 479 -60 492 -42 9 -68 -2 -85 -35
-13 -24 -15 -98 -15 -465 0 -289 -3 -435 -10 -435 -6 0 -35 24 -64 53 -84 81
-86 94 -86 498 0 306 -2 339 -17 358 -18 21 -76 36 -101 25z m386 -2000 c52
-14 52 -19 52 -629 l0 -565 -80 0 -80 0 2 581 3 580 25 19 c27 21 41 23 78 14z"/>
<path d="M2420 4236 c-3 -2 -33 -7 -68 -10 -34 -3 -81 -10 -105 -15 -23 -6
-56 -12 -74 -16 -68 -11 -252 -78 -350 -126 -507 -249 -868 -753 -930 -1302
-14 -122 -6 -468 12 -497 2 -3 6 -21 9 -40 11 -68 16 -86 46 -180 38 -116 52
-151 109 -260 244 -475 694 -800 1231 -891 172 -28 461 -17 643 26 501 117
922 460 1142 930 19 41 35 81 35 88 0 7 4 17 9 23 12 12 56 160 75 250 24 114
31 190 31 339 0 175 -8 252 -40 385 -107 446 -378 821 -760 1052 -269 163
-520 236 -840 244 -94 3 -173 3 -175 0z m405 -179 c321 -63 579 -198 804 -419
231 -229 373 -504 432 -838 22 -122 16 -414 -10 -533 -140 -649 -624 -1108
-1276 -1211 -86 -13 -347 -15 -422 -2 -118 19 -168 31 -257 61 -535 175 -916
604 -1028 1159 -26 131 -32 372 -12 506 86 562 468 1025 1004 1215 51 18 142
44 180 51 14 2 34 6 46 9 11 2 45 7 75 11 30 3 56 8 58 10 10 9 337 -6 406
-19z"/>
<path d="M2389 3829 c-558 -80 -995 -505 -1093 -1064 -16 -93 -14 -341 3 -425
6 -30 13 -64 15 -75 2 -11 9 -32 15 -47 6 -16 9 -28 7 -28 -3 0 9 -33 24 -74
145 -376 426 -645 803 -771 259 -86 570 -82 827 10 311 113 566 338 714 633
43 85 102 256 111 322 4 25 10 64 15 88 14 75 9 276 -10 379 -99 552 -526 967
-1083 1051 -72 11 -274 12 -348 1z m397 -173 c343 -75 622 -291 777 -601 37
-75 82 -201 91 -256 3 -19 8 -45 12 -59 13 -52 11 -286 -2 -365 -61 -350 -289
-660 -601 -814 -75 -38 -176 -76 -228 -86 -22 -5 -44 -9 -50 -11 -5 -1 -23 -5
-40 -9 -16 -4 -94 -8 -173 -10 -151 -2 -246 12 -375 57 -73 25 -254 115 -277
138 -3 3 -31 25 -63 49 -187 142 -338 389 -393 645 -19 84 -27 300 -14 371 5
28 12 67 15 89 4 21 18 73 32 115 70 209 194 388 365 526 138 111 361 209 527
231 25 3 48 8 50 10 11 10 283 -5 347 -20z"/>
<path d="M2164 3264 c-141 -41 -246 -147 -299 -301 -20 -58 -23 -83 -20 -173
4 -151 35 -222 155 -360 30 -35 62 -71 70 -79 9 -9 49 -54 90 -101 41 -47 80
-90 85 -96 31 -34 149 -167 190 -214 69 -80 95 -100 126 -100 32 0 52 18 169
150 41 47 79 90 85 96 5 6 35 39 65 74 30 35 66 75 80 90 27 30 43 48 146 165
91 104 107 127 138 205 73 180 27 405 -113 541 -67 65 -128 97 -216 112 -113
19 -241 -15 -322 -86 l-34 -30 -27 26 c-85 80 -248 117 -368 81z m180 -156
c27 -8 62 -33 101 -71 101 -99 123 -101 199 -23 73 76 125 101 206 100 46 0
77 -6 106 -21 169 -89 215 -337 91 -496 -35 -44 -181 -212 -198 -227 -6 -6
-234 -262 -264 -297 -11 -13 -24 -23 -30 -22 -5 0 -37 32 -70 70 -65 76 -76
88 -180 205 -69 77 -116 130 -187 209 -52 57 -72 85 -91 125 -112 244 81 518
317 448z"/>
<path d="M4452 4225 c-115 -32 -217 -125 -264 -243 l-27 -67 2 -245 c2 -236 3
-247 27 -305 37 -88 134 -182 223 -215 l67 -25 0 -370 0 -370 -27 -13 c-41
-18 -67 -43 -99 -92 l-29 -45 0 -658 0 -659 24 -19 c21 -17 41 -19 213 -19
l189 0 25 27 25 27 -3 645 c-3 606 -4 648 -22 683 -22 46 -68 92 -107 108
l-29 12 0 372 0 371 65 25 c93 35 165 101 212 198 l38 76 0 256 0 256 -38 77
c-67 136 -187 216 -337 223 -47 2 -95 -2 -128 -11z m210 -169 c46 -22 91 -67
114 -114 17 -33 19 -63 19 -267 l0 -230 -29 -46 c-58 -93 -171 -137 -275 -108
-60 17 -142 97 -159 155 -16 55 -16 412 0 466 16 55 89 133 141 152 51 19 140
15 189 -8z m-42 -1842 c13 -13 15 -93 18 -594 l2 -580 -80 0 -80 0 0 573 c0
604 -1 590 45 616 24 14 74 6 95 -15z"/>
</g>
</svg>
